<?xml version="1.0" standalone="no"?>
<!DOCTYPE svg PUBLIC "-//W3C//DTD SVG 20010904//EN"
 "http://www.w3.org/TR/2001/REC-SVG-20010904/DTD/svg10.dtd">
<svg version="1.0" xmlns="http://www.w3.org/2000/svg"
 width="512.000000pt" height="512.000000pt" viewBox="0 0 512.000000 512.000000"
 preserveAspectRatio="xMidYMid meet">
<metadata>
Created by potrace 1.14, written by Peter Selinger 2001-2017
</metadata>
<g transform="translate(0.000000,512.000000) scale(0.100000,-0.100000)"
fill="#000000" stroke="none">
<path d="M2378 5115 c-2 -1 -33 -5 -70 -9 -64 -6 -116 -12 -168 -22 -14 -2
-41 -7 -60 -10 -69 -10 -307 -78 -410 -116 -679 -253 -1219 -780 -1487 -1453
-39 -96 -97 -273 -107 -325 -2 -14 -12 -58 -20 -97 -22 -103 -31 -161 -45
-303 -8 -79 -6 -448 3 -489 3 -14 8 -45 11 -70 10 -87 13 -107 39 -219 174
-764 671 -1394 1371 -1737 234 -114 519 -206 720 -231 22 -3 49 -7 60 -9 62
-13 160 -19 330 -19 239 -1 308 5 515 45 58 12 115 23 128 25 38 7 320 103
370 125 328 148 584 322 819 560 331 335 555 733 667 1184 22 88 30 128 50
247 30 176 28 547 -3 753 -130 854 -704 1608 -1486 1951 -44 20 -89 39 -100
44 -86 38 -365 119 -465 134 -19 3 -44 8 -56 10 -12 2 -45 7 -74 11 -29 4 -62
9 -74 12 -23 5 -452 13 -458 8z"/>
</g>
</svg>
